<?xml version="1.0" encoding="UTF-8"?>
<!DOCTYPE svg PUBLIC "-//W3C//DTD SVG 1.1//EN" "http://www.w3.org/Graphics/SVG/1.1/DTD/svg11.dtd">
<svg version="1.1" xmlns="http://www.w3.org/2000/svg" xmlns:xlink="http://www.w3.org/1999/xlink" x="0" y="0" width="526.175" height="372.05" viewBox="0, 0, 526.175, 372.05">
  <g id="ink_ext_XXXXXX">
    <path d="M-3.546,375.592 L-3.546,-3.542 L529.721,-3.542 L529.721,375.592 z" fill="url(#Gradient_1)"/>
    <path d="M-3.546,270.964 L529.721,270.964 L529.721,381.425 L-3.546,381.425 z" fill="#E52071"/>
    <path d="M71.271,281.9 C71.271,281.702 72.78,278.758 72.932,278.658 C73.117,278.537 96.865,229.059 96.865,228.795 C96.865,228.683 95.567,226.787 93.982,224.581 C92.396,222.375 91.07,220.445 91.034,220.292 C90.971,220.025 92.319,213.895 92.466,213.781 C92.505,213.75 96.153,212.457 100.571,210.908 L108.604,208.09 L110.808,204.386 C120.877,187.466 123.563,182.908 123.563,182.738 C123.563,182.631 122.639,180.7 121.511,178.447 L119.459,174.352 L119.93,169.412 C120.189,166.695 120.429,164.452 120.463,164.427 C120.497,164.403 124.017,163.319 128.285,162.02 L136.045,159.656 L137.847,155.957 C138.838,153.922 140.621,150.298 141.809,147.903 L143.969,143.549 L143.185,141.091 C142.754,139.738 142.171,137.472 141.89,136.054 L141.38,133.477 L142.043,131.095 C142.408,129.785 142.769,128.659 142.847,128.594 C145.417,126.409 148.047,124.585 151.885,122.326 C155.368,120.276 156.427,119.565 156.653,119.126 C156.901,118.643 162.136,109.273 188.704,61.76 C190.884,57.861 192.69,54.643 192.717,54.608 C192.797,54.505 195.486,54.791 195.704,54.926 C195.976,55.094 196.061,57.118 196.31,69.309 C196.427,75.031 196.584,79.795 196.659,79.896 C196.792,80.076 202.882,91.815 206.879,99.598 C207.972,101.724 209.132,103.961 209.458,104.569 C209.784,105.177 210.935,107.387 212.017,109.48 L213.984,113.287 L214.942,113.208 C217.416,113.003 233.15,112.366 233.25,112.466 C233.405,112.622 234.246,118.508 234.149,118.762 C234.106,118.874 233.331,119.232 232.427,119.558 L230.783,120.151 L228.987,125.118 C227.999,127.85 227.236,130.202 227.291,130.346 C227.346,130.489 229.605,133.717 232.31,137.519 L237.23,144.432 L238.441,144.442 C239.108,144.448 241.332,144.519 243.385,144.599 L247.116,144.746 L248.533,146.292 C249.312,147.142 250.781,148.708 251.798,149.772 C252.815,150.836 254.01,152.094 254.455,152.568 L255.264,153.43 L252.38,156.706 C250.794,158.508 249.532,160.075 249.575,160.187 C249.618,160.3 252.54,163.91 256.069,168.21 C259.597,172.511 266.115,180.465 270.554,185.886 L278.623,195.742 L289.795,195.665 L300.966,195.587 L301.979,197.013 C302.536,197.798 303.918,199.728 305.05,201.302 C306.182,202.877 307.078,204.215 307.04,204.276 C307.002,204.338 305.806,204.749 304.383,205.19 C302.959,205.631 301.795,206.068 301.795,206.161 C301.795,206.303 299.58,218.683 299.064,221.422 L298.904,222.277 L312.363,239.234 L325.823,256.191 L328.585,261.372 C330.104,264.222 331.37,266.649 331.398,266.766 C331.463,267.03 329.199,268.716 328.779,268.716 C328.611,268.716 324.19,269.383 318.955,270.198 C313.719,271.013 308.11,271.88 306.49,272.124 C304.87,272.369 301.597,272.866 299.217,273.229 C295.215,273.84 292.024,274.133 276.201,275.346 C274.834,275.451 271.106,275.743 267.916,275.996 C262.118,276.455 260.312,276.557 248.399,277.092 C244.905,277.249 240.348,277.456 238.272,277.552 C236.196,277.648 232.509,277.812 230.078,277.917 C227.648,278.022 223.961,278.188 221.885,278.286 C213.074,278.702 209.304,278.855 203.564,279.031 C200.223,279.133 195.127,279.297 192.241,279.394 C189.355,279.491 184.383,279.657 181.193,279.763 C178.003,279.869 173.074,280.035 170.238,280.132 C165.331,280.301 157.992,280.508 134.334,281.146 C128.562,281.301 121.27,281.516 118.131,281.623 C111.643,281.844 71.271,282.082 71.271,281.9 z M86.37,277.737 C92.09,277.542 98.134,277.315 105.887,277.002 C108.266,276.906 111.876,276.772 113.909,276.705 L117.604,276.582 L125.645,253.362 C138.549,216.105 139.405,213.609 139.307,213.51 C139.255,213.459 132.639,214.355 124.604,215.501 L109.995,217.584 L104.188,229.018 C100.994,235.307 94.151,248.78 88.98,258.957 C83.81,269.135 79.527,277.6 79.463,277.768 C79.363,278.028 79.453,278.063 80.05,278.001 C80.437,277.961 83.281,277.842 86.37,277.737 z M139.397,276.634 C144.309,276.534 151.316,276.397 154.968,276.331 L161.608,276.209 L163.5,263.394 C164.541,256.346 166.696,241.755 168.29,230.97 C169.883,220.185 171.18,211.355 171.173,211.349 C171.165,211.342 166.187,211.606 160.111,211.936 C154.035,212.266 148.607,212.541 148.049,212.547 L147.034,212.558 L145.251,217.943 C140.483,232.352 125.956,276.656 125.956,276.791 C125.956,276.876 126.971,276.916 128.212,276.88 C129.452,276.845 134.486,276.734 139.397,276.634 z M186.625,275.506 C194.727,275.391 201.362,275.286 201.371,275.274 C201.381,275.262 200.787,262.617 200.053,247.173 C199.318,231.73 198.614,216.899 198.488,214.215 L198.259,209.336 L195.48,209.453 C187.282,209.797 177.784,210.217 177.76,210.235 C177.745,210.247 175.694,224.88 173.203,242.754 C170.711,260.628 168.638,275.402 168.595,275.584 C168.524,275.892 168.646,275.909 170.207,275.816 C171.135,275.761 178.524,275.621 186.625,275.506 z M219.215,274.413 C223.468,274.21 230.097,273.881 233.945,273.683 C237.793,273.484 241.279,273.322 241.691,273.321 L242.44,273.319 L236.679,249.797 C233.51,236.86 229.904,222.151 228.665,217.11 L226.412,207.945 L225.391,208.04 C224.83,208.093 219.855,208.229 214.336,208.343 C208.817,208.457 204.295,208.562 204.288,208.575 C204.281,208.588 205.539,223.223 207.085,241.097 C208.631,258.971 209.9,273.895 209.906,274.263 L209.917,274.931 L210.699,274.857 C211.13,274.817 214.962,274.617 219.215,274.413 z M101.118,217.647 C102.592,216.531 102.875,216.402 107.176,214.899 C112.678,212.975 119.725,211.218 125.772,210.262 C134.439,208.892 135.948,208.691 140.962,208.232 C143.798,207.972 147.858,207.599 149.984,207.402 C156.761,206.775 178.152,205.19 183.495,204.918 C199.221,204.118 206.533,203.878 234.129,203.258 C245.285,203.007 253.677,202.759 268.192,202.251 C270.926,202.156 278.59,201.897 285.224,201.677 C291.857,201.457 297.313,201.252 297.349,201.221 C297.384,201.191 297.312,200.596 297.187,199.899 L296.961,198.633 L295.465,198.703 C290.537,198.934 284.959,199.066 278.319,199.109 C274.167,199.136 270.438,199.182 270.033,199.21 C269.628,199.238 263.29,199.315 255.948,199.381 C247.367,199.459 241.316,199.596 239.008,199.765 C230.413,200.395 226.741,200.577 220.596,200.678 C217.001,200.738 211.035,200.863 207.339,200.956 C203.643,201.05 196.6,201.219 191.688,201.333 C180.949,201.583 172.487,202.169 149.156,204.281 C139.442,205.161 138.459,205.285 129.27,206.784 L119.604,208.362 L112.228,210.637 C108.171,211.889 102.868,213.663 100.444,214.581 C98.019,215.499 95.921,216.291 95.781,216.341 C95.534,216.429 98.941,218.765 99.369,218.801 C99.481,218.81 100.268,218.291 101.118,217.647 z M129.812,203.713 C136.743,202.598 142.449,201.65 142.494,201.605 C142.568,201.531 143.946,197.628 151.27,176.746 C152.726,172.594 154.29,168.149 154.745,166.868 L155.571,164.539 L153.698,165.051 C152.668,165.333 149.221,166.276 146.037,167.148 C142.853,168.019 140.188,168.795 140.115,168.872 C139.916,169.082 116.721,205.424 116.622,205.681 C116.569,205.819 116.664,205.872 116.874,205.822 C117.059,205.777 122.881,204.828 129.812,203.713 z M155.784,200.499 C161.848,200.058 174.102,199.084 174.149,199.039 C174.207,198.985 178.035,160.74 177.988,160.687 C177.969,160.665 176.507,160.813 174.74,161.015 C172.973,161.217 169.956,161.549 168.036,161.753 C166.116,161.957 164.518,162.151 164.484,162.185 C164.45,162.219 161.4,170.646 157.706,180.912 C154.013,191.178 150.867,199.891 150.717,200.274 L150.442,200.971 L151.318,200.866 C151.8,200.808 153.81,200.643 155.784,200.499 z M190.756,198.37 C195.053,198.169 198.595,197.98 198.626,197.949 C198.657,197.918 198.438,194.957 198.139,191.37 C197.84,187.782 197.3,181.202 196.939,176.746 C196.577,172.29 196.118,166.737 195.919,164.405 C195.719,162.074 195.555,160.02 195.555,159.841 C195.555,159.55 195.412,159.525 194.22,159.614 C193.486,159.668 191.145,159.804 189.019,159.915 C186.892,160.026 185.131,160.138 185.104,160.163 C185.053,160.212 184.384,165.419 181.847,185.492 C180.983,192.327 180.235,198.153 180.185,198.439 L180.093,198.958 L181.518,198.846 C182.301,198.785 186.459,198.571 190.756,198.37 z M220.688,197.267 C222.41,197.149 223.824,197.04 223.831,197.026 C223.849,196.99 214.855,159.076 214.822,159.049 C214.808,159.037 211.936,159.161 208.44,159.325 L202.083,159.622 L203.916,178.959 L205.748,198.296 L211.653,197.889 C214.901,197.665 218.966,197.385 220.688,197.267 z M127.905,171.731 C128.096,170.67 128.238,170.502 129.632,169.674 C131.774,168.401 146.752,163.737 155.692,161.559 C161.467,160.152 162.12,160.033 168.857,159.171 C177.908,158.014 191.646,156.732 202.46,156.035 C216.805,155.111 219.532,154.923 219.933,154.832 C220.287,154.751 223.975,154.482 238.824,153.454 C241.71,153.254 244.599,153.041 245.243,152.979 L246.415,152.868 L246.283,151.09 C246.211,150.111 246.134,149.292 246.112,149.268 C246.09,149.245 244.711,149.387 243.046,149.584 C241.381,149.781 238.32,150.03 236.245,150.137 C229.579,150.483 224.254,150.878 217.558,151.522 C216.039,151.669 213.015,151.916 210.837,152.072 C185.716,153.876 180.771,154.28 172.355,155.214 C164.427,156.095 162.846,156.323 160.203,156.968 C158.532,157.376 154.289,158.411 150.773,159.269 C147.258,160.127 142.825,161.317 140.923,161.915 C139.02,162.513 135.973,163.472 134.15,164.046 C130.499,165.198 125.055,167.327 124.747,167.725 C124.639,167.864 124.449,168.638 124.326,169.443 C124.133,170.7 124.145,171.099 124.407,172.262 C124.574,173.006 124.747,173.677 124.791,173.751 C124.834,173.826 125.525,173.557 126.325,173.155 C127.679,172.474 127.789,172.376 127.905,171.731 z M153.499,154.63 L160.512,153.224 L164.87,139.869 C167.268,132.524 169.196,126.481 169.156,126.441 C169.116,126.401 167.178,126.923 164.848,127.6 L160.614,128.832 L158.072,133.64 C156.675,136.284 155.307,138.862 155.034,139.369 C154.668,140.047 147.817,152.964 146.367,155.71 C146.273,155.887 146.262,156.033 146.341,156.034 C146.421,156.035 149.642,155.403 153.499,154.63 z M174.105,151.616 C176.636,151.415 179.308,151.2 180.043,151.14 C180.777,151.079 181.378,150.952 181.378,150.857 C181.378,150.691 182.768,133.684 183.295,127.401 C183.439,125.68 183.543,124.258 183.526,124.243 C183.472,124.192 175.225,125.114 175.161,125.178 C175.114,125.225 169.839,145.011 168.245,151.115 L167.967,152.183 L168.734,152.083 C169.156,152.028 171.573,151.818 174.105,151.616 z M191.768,150.417 C194.9,150.059 197.49,149.739 197.523,149.706 C197.556,149.673 197.126,144.972 196.567,139.26 C195.183,125.119 194.989,123.182 194.946,123.139 C194.89,123.083 188.294,123.645 188.228,123.711 C188.187,123.752 185.078,150.757 185.062,151.213 C185.061,151.246 185.288,151.227 185.566,151.171 C185.845,151.114 188.636,150.775 191.768,150.417 z M207.97,148.569 C210.495,148.317 212.579,148.09 212.601,148.066 C212.624,148.042 212.357,146.78 212.007,145.26 C211.658,143.741 210.419,138.314 209.254,133.2 C208.089,128.086 207.09,123.716 207.034,123.488 C206.931,123.074 206.927,123.074 202.892,123.074 L198.853,123.074 L198.955,123.672 C199.053,124.238 201.999,148.86 201.999,149.107 C201.999,149.171 202.31,149.18 202.69,149.126 C203.07,149.072 205.446,148.822 207.97,148.569 z M149.035,133.594 C150.441,132.338 152.514,130.769 154.611,129.374 C157.729,127.3 158.121,127.094 160.595,126.235 C162.05,125.729 164.181,124.977 165.329,124.562 C166.477,124.148 168.383,123.639 169.564,123.43 C179.577,121.661 181.33,121.403 186.916,120.872 C190.199,120.56 194.584,120.143 196.66,119.944 C200.936,119.535 218.667,118.078 224.647,117.644 C226.824,117.486 229.04,117.311 229.572,117.256 L230.539,117.155 L230.539,116.064 L230.539,114.972 L229.664,114.976 C223.878,115.002 216.713,115.41 208.996,116.153 C204.287,116.607 197.369,117.232 193.622,117.542 C187.024,118.089 174.124,119.59 173,119.942 C170.067,120.86 162.405,122.889 161.872,122.889 C161.406,122.889 159.838,123.497 156.877,124.823 C153.144,126.496 152.147,127.036 149.485,128.828 L146.407,130.899 L145.74,132.441 L145.073,133.983 L145.864,134.788 C146.299,135.231 146.687,135.594 146.726,135.594 C146.765,135.594 147.805,134.694 149.035,133.594 z M170.871,116.437 C172.334,116.335 173.567,116.216 173.611,116.171 C173.656,116.126 174.419,113.581 175.307,110.514 C178.977,97.835 183.421,82.45 183.511,82.106 C183.633,81.644 180.868,86.987 175.222,98.125 C172.809,102.884 169.676,109.042 168.259,111.809 L165.684,116.84 L166.948,116.731 C167.644,116.671 169.409,116.538 170.871,116.437 z M180.997,115.433 C182.859,115.282 184.417,115.124 184.458,115.083 C184.5,115.041 184.732,113.031 184.974,110.617 C185.216,108.202 185.917,101.213 186.532,95.087 C187.147,88.96 187.699,83.657 187.76,83.303 C187.821,82.948 187.82,82.705 187.758,82.762 C187.67,82.843 180.583,105.582 178.15,113.591 C177.873,114.503 177.607,115.352 177.559,115.478 C177.511,115.605 177.503,115.709 177.542,115.709 C177.58,115.709 179.135,115.585 180.997,115.433 z M192.138,114.416 C193.145,114.311 193.999,114.196 194.035,114.16 C194.138,114.057 191.609,86.065 191.496,86.065 C191.441,86.065 191.253,87.66 191.08,89.609 C190.906,91.558 190.309,98 189.753,103.925 C189.198,109.849 188.743,114.722 188.743,114.753 C188.743,114.785 189.095,114.764 189.525,114.708 C189.955,114.651 191.131,114.52 192.138,114.416 z M203.966,113.335 L204.735,113.223 L200.887,103.741 C198.771,98.525 197.037,94.341 197.033,94.442 C197.019,94.839 198.137,111.808 198.237,112.717 L198.343,113.683 L200.77,113.565 C202.104,113.5 203.543,113.396 203.966,113.335 z" fill-opacity="0" stroke="#E09A00" stroke-width="2" stroke-opacity="0.504"/>
    <g>
      <text transform="matrix(1.25, 0, 0, 1.25, 264.248, 81.271)">
        <tspan x="-190.272" y="4.5" font-family="OpenSans" font-size="13" fill="#231F20">Magdeburg sucht Mitwirkende für ein freies WLAN-Netz</tspan>
      </text>
      <g>
        <text transform="matrix(1.25, 0, -0, 1.25, 239.688, 119.495)">
          <tspan x="-160.78" y="3" font-family="OpenSans" font-size="9" fill="#231F20">Beim Freifunk-Projekt schließen sich Menschen zusammen, um ein nicht-</tspan>
        </text>
        <text transform="matrix(1.25, 0, -0, 1.25, 244.066, 133.557)">
          <tspan x="-164.282" y="3" font-family="OpenSans" font-size="9" fill="#231F20">kommerzielles Netz mit Hilfe von WLAN-Routern aufzubauen. Jeder Nutzer</tspan>
        </text>
        <text transform="matrix(1.25, 0, -0, 1.25, 241.105, 147.62)">
          <tspan x="-161.913" y="3" font-family="OpenSans" font-size="9" fill="#231F20">stellt einen WLAN-Router für den freien Datentransfer anderer Teilnehmer</tspan>
        </text>
        <text transform="matrix(1.25, 0, -0, 1.25, 247.529, 161.682)">
          <tspan x="-167.053" y="3" font-family="OpenSans" font-size="9" fill="#231F20">zur Verfügung und kann z.B. den eigenen Internetzugang teilen. So entsteht</tspan>
        </text>
        <text transform="matrix(1.25, 0, -0, 1.25, 230.448, 175.745)">
          <tspan x="-153.388" y="3" font-family="OpenSans" font-size="9" fill="#231F20">ein Gemeinschaftsnetz, das von allen kostenfrei genutzt werden kann.</tspan>
        </text>
      </g>
    </g>
    <path d="M58.602,239.012 L481.89,216.829 L481.759,214.332 L58.472,236.515" fill="#E31172"/>
    <g>
      <text transform="matrix(1.25, 0, -0, 1.25, 331.506, 329.8)">
        <tspan x="-234.478" y="9.5" font-family="OpenSans" font-size="25" fill="#FFFFFF">Mach mit unter md.freifunk.net</tspan>
      </text>
      <text transform="matrix(1.25, 0, -0, 1.25, 276.539, 364.55)">
        <tspan x="-190.237" y="-3.5" font-family="OpenSans" font-size="9.6" fill="#FFFFFF">oder komme zu einem unserer Treffen (Freitags (gKW) ab 18 Uhr beim Netz39 e.V.)</tspan>
      </text>
    </g>
    <path d="M42.098,191.611 C42.098,191.611 27.098,191.611 27.098,206.611 L27.098,287.791 C27.098,287.791 27.098,302.791 42.098,302.791 L141.144,302.791 C141.144,302.791 156.144,302.791 156.144,287.791 L156.144,206.611 C156.144,206.611 156.144,191.611 141.144,191.611 L42.098,191.611" fill="#FFFFFF"/>
    <path d="M42.098,192.236 L42.098,190.986 C41.994,190.992 38.091,190.979 34.039,192.994 C32.018,194.002 29.952,195.545 28.402,197.871 C26.849,200.195 25.845,203.28 25.848,207.236 L25.848,288.416 C25.855,288.521 25.84,292.425 27.855,296.476 C28.865,298.497 30.407,300.563 32.733,302.114 C35.057,303.666 38.143,304.67 42.098,304.666 L141.144,304.666 C141.247,304.66 145.151,304.675 149.202,302.66 C151.224,301.65 153.29,300.109 154.84,297.782 C156.393,295.459 157.397,292.372 157.394,288.416 L157.394,207.236 C157.387,207.132 157.401,203.229 155.386,199.177 C154.378,197.155 152.835,195.09 150.509,193.54 C148.185,191.987 145.1,190.982 141.144,190.986 L42.098,190.986 L42.098,193.486 L141.144,193.486 C144.688,193.49 147.227,194.36 149.122,195.62 C151.956,197.505 153.414,200.377 154.155,202.849 C154.525,204.08 154.711,205.196 154.802,205.995 C154.849,206.395 154.871,206.715 154.882,206.93 L154.893,207.171 L154.894,207.226 L154.894,288.416 C154.89,291.961 154.02,294.5 152.76,296.395 C150.875,299.229 148.003,300.688 145.53,301.429 C144.3,301.797 143.184,301.984 142.385,302.076 C141.985,302.122 141.665,302.145 141.45,302.156 L141.209,302.166 L42.098,302.166 C38.554,302.164 36.015,301.293 34.12,300.032 C31.286,298.148 29.829,295.275 29.087,292.804 C28.717,291.574 28.531,290.456 28.439,289.657 C28.393,289.259 28.37,288.939 28.359,288.722 L28.35,288.483 L28.349,288.426 L28.348,288.416 L28.348,207.236 C28.352,203.692 29.223,201.152 30.482,199.257 C32.367,196.424 35.24,194.966 37.711,194.225 C38.942,193.855 40.059,193.669 40.857,193.576 C41.257,193.531 41.577,193.507 41.792,193.497 L42.033,193.487 L42.089,193.486 L42.098,193.486 L42.098,192.236" fill="#E31172"/>
    <path d="M213.565,191.611 C213.565,191.611 198.565,191.611 198.565,206.611 L198.565,287.791 C198.565,287.791 198.565,302.791 213.565,302.791 L312.61,302.791 C312.61,302.791 327.61,302.791 327.61,287.791 L327.61,206.611 C327.61,206.611 327.61,191.611 312.61,191.611 L213.565,191.611" fill="#FFFFFF"/>
    <path d="M213.565,191.611 L213.565,190.361 C213.46,190.367 209.557,190.354 205.506,192.369 C203.484,193.377 201.419,194.92 199.869,197.246 C198.315,199.57 197.311,202.655 197.315,206.611 L197.315,287.791 C197.321,287.896 197.306,291.8 199.321,295.851 C200.331,297.872 201.874,299.938 204.2,301.489 C206.522,303.041 209.609,304.045 213.565,304.041 L312.61,304.041 C312.714,304.035 316.617,304.05 320.669,302.035 C322.691,301.025 324.756,299.484 326.306,297.157 C327.859,294.834 328.864,291.747 328.86,287.791 L328.86,206.611 C328.854,206.507 328.867,202.604 326.853,198.552 C325.844,196.53 324.301,194.465 321.975,192.915 C319.651,191.362 316.566,190.357 312.61,190.361 L213.565,190.361 L213.565,192.861 L312.61,192.861 C316.154,192.865 318.694,193.735 320.589,194.995 C323.422,196.88 324.88,199.752 325.621,202.224 C325.991,203.455 326.177,204.571 326.27,205.37 C326.315,205.77 326.339,206.09 326.349,206.305 L326.359,206.546 L326.36,206.601 L326.36,287.791 C326.356,291.336 325.486,293.875 324.226,295.77 C322.341,298.604 319.469,300.063 316.997,300.804 C315.766,301.172 314.65,301.359 313.851,301.451 C313.451,301.497 313.131,301.52 312.916,301.531 L312.675,301.541 L213.565,301.541 C210.021,301.539 207.481,300.668 205.586,299.407 C202.752,297.523 201.295,294.65 200.552,292.179 C200.184,290.949 199.997,289.831 199.905,289.032 C199.859,288.634 199.836,288.314 199.825,288.097 L199.816,287.858 L199.815,287.801 L199.815,206.611 C199.819,203.067 200.689,200.527 201.949,198.632 C203.834,195.799 206.706,194.341 209.177,193.6 C210.409,193.23 211.525,193.044 212.324,192.951 C212.724,192.906 213.044,192.882 213.259,192.872 L213.5,192.862 L213.555,192.861 L213.565,192.861 L213.565,191.611" fill="#E31172"/>
    <path d="M378.693,191.611 C378.693,191.611 360.379,191.611 360.379,206.78 L360.379,288.873 C360.379,288.873 360.379,304.041 378.693,304.041 L499.624,304.041 C499.624,304.041 517.939,304.041 517.939,288.873 L517.939,206.78 C517.939,206.78 517.939,191.611 499.624,191.611 L378.693,191.611" fill="#FFFFFF"/>
    <path d="M379.914,191.611 L379.914,190.361 C379.786,190.367 375.021,190.354 370.075,192.369 C367.605,193.377 365.084,194.92 363.192,197.246 C361.294,199.57 360.069,202.655 360.074,206.611 L360.074,287.791 C360.081,287.896 360.063,291.8 362.523,295.851 C363.756,297.872 365.64,299.938 368.48,301.489 C371.316,303.041 375.084,304.045 379.914,304.041 L500.845,304.041 C500.972,304.035 505.738,304.05 510.685,302.035 C513.154,301.025 515.676,299.484 517.568,297.157 C519.464,294.834 520.691,291.747 520.686,287.791 L520.686,206.611 C520.679,206.507 520.695,202.604 518.235,198.552 C517.003,196.53 515.12,194.465 512.28,192.915 C509.443,191.362 505.676,190.357 500.845,190.361 L379.914,190.361 L379.914,192.861 L500.845,192.861 C505.172,192.865 508.274,193.735 510.587,194.995 C514.047,196.88 515.827,199.752 516.732,202.224 C517.184,203.455 517.411,204.571 517.524,205.37 C517.579,205.77 517.608,206.09 517.622,206.305 L517.632,206.546 L517.634,206.601 L517.634,287.791 C517.629,291.336 516.567,293.875 515.029,295.77 C512.727,298.604 509.22,300.063 506.202,300.804 C504.699,301.172 503.336,301.359 502.361,301.451 C501.873,301.497 501.482,301.52 501.219,301.531 L500.925,301.541 L379.914,301.541 C375.587,301.539 372.486,300.668 370.172,299.407 C366.713,297.523 364.933,294.65 364.026,292.179 C363.576,290.949 363.349,289.831 363.236,289.032 C363.179,288.634 363.152,288.314 363.138,288.097 L363.127,287.858 L363.126,287.801 L363.126,206.611 C363.131,203.067 364.193,200.527 365.731,198.632 C368.033,195.799 371.54,194.341 374.557,193.6 C376.061,193.23 377.424,193.044 378.399,192.951 C378.887,192.906 379.278,192.882 379.54,192.872 L379.835,192.862 L379.902,192.861 L379.914,192.861 L379.914,191.611" fill="#E31172"/>
    <g>
      <g>
        <path d="M465.143,88.229 C466.273,88.23 467.186,89.148 467.184,90.276 C467.183,91.405 466.265,92.32 465.136,92.318 C464.008,92.316 463.094,91.399 463.095,90.27 C463.096,89.14 464.015,88.226 465.143,88.229" fill="#E52071"/>
        <path d="M460.655,85.771 C461.891,84.538 463.523,83.916 465.14,83.918 C466.766,83.916 468.404,84.544 469.641,85.786 L467.881,87.543 C467.121,86.783 466.136,86.406 465.14,86.405 C464.149,86.406 463.168,86.779 462.41,87.533 L460.655,85.771" fill="#E52071"/>
      </g>
      <path d="M463.622,82.46 C460.273,83.822 461.566,82.972 459.523,84.636 L457.768,82.875 C459.33,81.343 460.993,80.549 463.146,80.02 C463.792,79.861 464.471,79.893 465.134,79.829 L465.146,79.829 C467.43,80.049 467.604,79.905 470.009,81.031 C470.627,81.32 471.147,81.785 471.716,82.162 L471.745,82.182 L472.538,82.9 L472.538,82.901 L470.776,84.656 C469.097,83.279 469.322,83.259 466.664,82.462 C466.175,82.315 465.648,82.364 465.14,82.315 z" fill="url(#Gradient_2)"/>
      <path d="M465.146,75.74 C468.869,75.74 472.6,77.169 475.435,80.014 L473.674,81.769 C471.384,79.591 469.402,78.732 466.299,78.282 C465.917,78.227 465.527,78.245 465.141,78.226 C462.051,78.3 460.026,79.096 457.551,80.916 C457.221,81.159 456.941,81.465 456.636,81.74 L454.881,79.979 C457.713,77.155 461.43,75.74 465.135,75.74 z z" fill="url(#Gradient_3)"/>
      <path d="M465.146,71.65 C469.916,71.65 474.698,73.48 478.331,77.128 L476.57,78.883 C473.414,75.718 469.283,74.139 465.14,74.136 C461.015,74.139 456.903,75.703 453.75,78.843 L451.995,77.081 C455.625,73.464 460.385,71.65 465.134,71.65 z" fill="url(#Gradient_4)"/>
    </g>
    <path d="M449.673,103.089 C449.673,103.089 449.331,103.43 448.99,103.157 C448.649,102.883 447.897,101.175 447.897,101.175 L447.897,100.219 L447.829,99.739 L447.351,99.261 C447.351,99.261 446.598,98.441 447.145,96.869 C447.692,95.297 448.581,93.588 449.265,93.11 C449.947,92.631 451.178,92.222 451.178,92.222 L451.929,92.017 L452.887,91.948 C452.887,91.948 453.023,91.606 454.39,92.222 C455.758,92.836 456.304,93.384 457.328,94.408 C458.355,95.433 458.628,95.571 458.696,96.322 C458.765,97.074 458.696,97.963 458.696,97.963 C458.696,97.963 458.558,98.51 458.833,99.056 C459.106,99.603 459.448,99.466 458.969,100.219 C458.491,100.969 458.013,101.516 458.013,101.516 L457.466,102.063 C457.466,102.063 457.192,101.721 457.192,102.269 C457.192,102.815 456.919,103.568 456.919,103.568 L457.192,106.438 C457.192,106.438 457.397,106.643 458.15,106.78 C458.901,106.916 459.995,107.599 461.088,107.599 L462.387,107.599 C462.387,107.599 462.728,108.009 461.84,108.283 C460.952,108.557 460.814,108.557 461.361,108.898 C461.908,109.24 462.933,109.582 462.933,109.582 C462.933,109.582 464.369,109.787 465.189,110.471 C466.01,111.154 467.718,114.298 467.718,114.708 C467.718,115.117 468.674,115.596 468.402,116.075 C468.127,116.553 468.06,116.826 468.06,116.826 C468.06,116.826 468.127,117.374 468.538,117.989 C468.949,118.603 469.632,120.654 469.837,121.27 C470.041,121.884 469.974,122.226 470.316,123.183 C470.657,124.139 470.726,125.234 470.521,125.506 C470.316,125.78 470.452,126.464 470.11,127.284 C469.768,128.104 470.041,128.514 469.495,128.924 C468.949,129.333 467.786,129.744 467.786,129.744 C467.786,129.744 467.308,129.813 467.308,129.813 C467.308,129.813 467.377,131.247 467.581,132.136 C467.786,133.024 467.581,134.461 468.265,136.374 C468.949,138.288 469.495,141.842 469.495,141.842 C469.495,141.842 469.085,142.867 468.469,143.482 C467.854,144.098 464.916,144.986 464.916,144.986 C464.916,144.986 465.394,155.169 465.052,156.605 C464.71,158.04 464.505,158.93 464.163,159.134 C463.821,159.339 464.437,162.893 464.232,163.713 C464.027,164.533 463.821,166.788 463.821,166.788 L464.027,168.293 C464.027,168.293 464.642,168.976 464.642,168.976 L464.779,170.41 C464.779,170.41 464.642,174.376 464.163,175.742 C463.686,177.109 463.89,177.52 463.89,178.135 C463.89,178.75 463.07,181.415 463.07,181.415 L463.549,185.242 C463.549,185.242 464.163,185.995 464.163,185.995 C464.163,185.995 466.077,187.361 466.761,187.84 C467.444,188.319 469.427,189.686 469.427,189.686 C469.427,189.686 470.246,190.369 470.179,190.847 C470.11,191.325 469.632,192.008 469.632,192.008 C469.632,192.008 467.991,193.239 465.53,192.488 C463.07,191.736 459.242,189.686 459.242,189.686 L456.987,188.523 C456.987,188.523 456.509,187.908 456.509,187.908 L456.441,187.361 C456.441,187.361 456.782,186.951 456.782,186.951 L457.124,186.678 L457.124,186.064 C457.124,186.064 456.372,185.175 456.235,184.559 C456.1,183.945 456.031,173.829 456.167,172.393 C456.304,170.958 456.373,169.865 456.508,169.454 C456.645,169.044 456.782,168.702 456.782,168.702 L456.577,167.814 L456.577,166.994 L457.192,165.285 C457.192,165.285 455.758,159.749 455.758,158.519 C455.758,157.288 455.484,153.051 455.484,153.051 L454.663,150.249 L454.39,149.36 C454.39,149.36 453.911,150.044 453.501,150.523 C453.092,151 453.364,151.478 452.75,152.845 C452.134,154.214 450.767,158.177 450.767,158.177 L449.673,162.483 C449.673,162.483 448.717,172.188 448.717,172.188 L447.008,185.242 L447.008,186.883 C447.008,187.292 445.983,188.797 445.914,189.275 C445.846,189.754 446.393,190.095 445.71,190.847 C445.026,191.599 444.821,192.692 444.07,192.625 C443.318,192.556 440.379,192.488 439.901,191.804 C439.422,191.119 439.763,187.361 439.763,187.361 L440.243,186.678 L440.243,182.578 L442.907,162.277 C442.907,162.277 442.703,159.613 442.703,159.613 L442.429,155.033 C442.429,155.033 442.976,145.806 442.976,145.806 L443.249,144.37 C443.249,144.37 442.771,143.687 442.771,143.687 L441.473,143.346 L441.951,140.27 C441.951,140.27 444.07,130.018 444.07,130.018 L443.181,128.72 L442.088,121.475 L443.181,112.248 C443.181,112.248 444.89,110.676 445.574,110.334 C446.257,109.992 447.76,108.966 447.76,108.966 C447.76,108.966 448.512,108.078 448.512,108.078 C448.512,108.078 449.742,106.985 450.153,106.78 C450.562,106.575 450.631,106.438 450.631,106.438 C450.631,106.438 450.358,105.071 450.289,104.524 C450.221,103.977 449.673,103.089 449.673,103.089 z" fill="#E31172"/>
    <path d="M489.955,129.145 C490.022,129.127 490.086,129.113 490.124,129.116 C490.141,129.117 490.16,129.119 490.177,129.121 C490.177,129.121 489.955,129.145 489.955,129.145 z M483.282,160.665 C483.065,161.372 483.119,162.186 483.065,162.62 C483.011,163.054 482.902,162.783 482.902,163.978 C482.902,165.173 482.685,167.616 482.414,168.864 C482.141,170.114 482.141,170.873 482.141,171.689 C482.141,172.503 481.273,176.032 481.273,176.032 L481.165,177.608 L481.057,178.15 L481.002,175.653 L480.676,174.675 C480.676,174.675 479.698,166.259 479.698,165.716 C479.698,165.173 479.427,164.195 479.427,164.195 L479.644,163.489 L479.807,160.774 L480.079,159.525 C480.079,159.525 480.405,156.429 480.622,153.66 C480.839,150.89 481.545,147.036 481.545,147.036 L481.761,145.949 C481.761,145.949 482.36,147.85 482.848,153.389 C483.274,158.21 482.6,156.871 483.065,158.384 C483.282,159.091 483.499,159.959 483.282,160.665 z M493.979,122.437 L493.762,122.219 C493.762,122.219 493.817,122.165 494.034,121.893 C494.251,121.622 493.762,121.514 493.708,121.243 C493.653,120.971 492.677,117.821 492.677,117.821 C492.677,117.821 492.785,117.115 492.569,116.626 C492.351,116.138 492.46,114.4 492.405,113.314 C492.351,112.228 491.645,111.577 490.939,111.196 C490.232,110.817 489.316,110.542 488.713,110.598 C486.146,110.845 486.261,110.921 487.843,110.164 C487.843,110.164 487.952,109.296 488.168,108.699 C488.387,108.101 488.115,108.373 487.952,107.721 C487.789,107.069 487.897,107.069 488.006,106.309 C488.115,105.548 487.952,105.223 487.68,104.897 C487.409,104.573 487.355,104.789 487.355,103.811 C487.355,102.835 486.867,101.747 486.378,99.25 C485.888,96.752 483.119,94.037 482.523,93.657 C481.924,93.277 481.11,93.168 480.513,93.168 C479.915,93.168 479.372,93.548 479.372,93.548 C479.372,93.548 478.559,93.711 478.015,93.765 C477.472,93.82 476.766,94.634 476.114,95.395 C475.463,96.155 474.594,98.436 474.323,100.119 C474.051,101.802 474.16,102.399 473.725,104.136 C473.291,105.875 472.911,106.635 472.911,106.635 L473.236,107.938 L475.1,109.078 C475.1,109.078 475.551,109.756 475.551,109.756 C475.551,109.756 474.043,110.51 472.368,110.817 C470.811,111.101 470.63,111.523 470.196,113.966 C469.761,116.409 469.543,120.698 469.163,123.849 C468.784,126.998 471.119,130.419 471.445,130.8 C471.649,131.037 472.201,131.035 472.587,131.001 C472.765,133.99 472.837,131.301 472.584,133.949 C472.476,135.09 472.313,136.392 472.313,136.392 L472.204,137.262 C472.204,137.262 471.879,138.292 471.661,139.108 C471.445,139.922 471.661,141.823 471.661,141.823 C471.661,141.823 471.716,144.538 471.716,145.136 L471.716,146.6 C471.716,146.6 472.204,153.118 472.584,155.941 C472.965,158.764 473.128,162.783 473.128,162.783 L473.074,163.218 L473.182,163.652 L473.019,164.195 C473.019,164.195 473.074,164.737 473.019,165.173 C472.965,165.607 472.693,167.02 472.693,167.02 C472.693,167.02 472.856,168.322 472.747,170.494 C472.638,172.666 473.291,176.793 473.562,178.53 C473.834,180.268 474.594,183.744 474.811,185.154 C475.029,186.567 474.973,186.133 474.973,186.133 L475.354,186.404 C475.354,186.404 475.574,187.577 475.34,187.946 C474.966,188.534 473.563,189.261 473.563,189.261 L473.401,190.618 C473.401,190.618 477.038,190.478 477.743,190.422 C478.449,190.369 479.279,190.536 480.094,189.342 C480.908,188.146 480.567,187.382 480.567,187.382 L480.404,186.73 L480.513,186.35 L480.894,186.73 C480.894,186.73 481.133,187.991 481.924,189.391 C482.63,190.64 483.283,190.314 483.283,190.314 L484.368,190.206 L484.748,189.88 C485.085,188.822 485.048,188.833 485.78,187.491 C486.432,186.296 485.834,186.458 485.834,186.458 L486.866,185.97 L488.061,180.594 L488.278,178.259 L488.658,175.001 L488.983,173.21 C488.983,173.21 489.147,170.548 489.147,170.548 C489.147,170.548 489.69,167.942 489.853,166.259 C490.016,164.575 489.69,164.683 489.636,163.87 C489.581,163.055 489.636,162.945 489.419,161.48 C489.202,160.013 489.69,158.493 489.69,158.493 L490.232,153.172 C490.232,153.172 491.157,147.036 491.699,145.081 C492.242,143.127 491.862,142.691 491.862,140.954 C491.862,139.217 491.917,138.781 491.917,138.781 C491.917,138.781 491.319,135.958 490.775,133.949 C490.232,131.94 490.179,131.94 490.124,130.963 C490.072,130.022 490.22,129.187 490.23,129.127 C490.977,129.201 491.917,129.496 491.917,129.496 C491.917,129.496 492.35,129.496 492.84,129.008 C493.328,128.518 493.654,126.129 493.762,125.478 C493.871,124.827 493.926,123.197 493.926,123.197 L494.143,122.871 C494.143,122.871 493.98,122.437 493.98,122.437 L493.979,122.437 z" fill="#E31172"/>
    <text transform="matrix(1.25, 0, 0, 1.25, 316.489, 39.275)">
      <tspan x="-167.749" y="12.5" font-family="OpenSans" font-size="34" fill="#000000">Freifunk Magdeburg</tspan>
    </text>
    <text transform="matrix(1, 0, 0, 1, 439.159, 249.701)">
      <tspan x="-30.85" y="-38.5" font-family="OpenSans" font-size="12" fill="#000000">Öffentliche </tspan>
      <tspan x="-37.116" y="-21.5" font-family="OpenSans" font-size="12" fill="#000000">Institutionen, </tspan>
      <tspan x="-43.84" y="-4.5" font-family="OpenSans" font-size="12" fill="#000000">Kirchen, Firmen </tspan>
      <tspan x="-57.724" y="12.5" font-family="OpenSans" font-size="12" fill="#000000">und Vereine, die ihre </tspan>
      <tspan x="-54.205" y="29.5" font-family="OpenSans" font-size="12" fill="#000000">Dächer für Freifunk </tspan>
      <tspan x="-36.401" y="46.5" font-family="OpenSans" font-size="12" fill="#000000">bereitstellen.</tspan>
    </text>
    <text transform="matrix(1, 0, 0, 1, 263.091, 246.936)">
      <tspan x="-38.112" y="-35.735" font-family="OpenSans" font-size="12" fill="#000000">Unternehmer </tspan>
      <tspan x="-52.646" y="-18.735" font-family="OpenSans" font-size="12" fill="#000000">und Gastronomen, </tspan>
      <tspan x="-60.22" y="-1.735" font-family="OpenSans" font-size="12" fill="#000000">die Freifunk-Hotspots </tspan>
      <tspan x="-39.419" y="15.265" font-family="OpenSans" font-size="12" fill="#000000">zur Verfügung </tspan>
      <tspan x="-20.027" y="32.265" font-family="OpenSans" font-size="12" fill="#000000">stellen.</tspan>
    </text>
    <text transform="matrix(1, 0, 0, 1, 89.409, 249.701)">
      <tspan x="-44.221" y="-38.5" font-family="OpenSans" font-size="12" fill="#000000">Privatpersonen, </tspan>
      <tspan x="-25.734" y="-21.5" font-family="OpenSans" font-size="12" fill="#000000">die einen </tspan>
      <tspan x="-40.427" y="-4.5" font-family="OpenSans" font-size="12" fill="#000000">Freifunkrouter</tspan>
      <tspan x="-41.643" y="12.5" font-family="OpenSans" font-size="12" fill="#000000"> aufstellen und </tspan>
      <tspan x="-41.367" y="29.5" font-family="OpenSans" font-size="12" fill="#000000">Teil des Netzes </tspan>
      <tspan x="-22.685" y="46.5" font-family="OpenSans" font-size="12" fill="#000000">werden.</tspan>
    </text>
  </g>
  <defs>
    <linearGradient id="Gradient_1" gradientUnits="userSpaceOnUse" x1="293.941" y1="982.675" x2="293.941" y2="2328.912" gradientTransform="matrix(0.125, 0, 0, -0.125, 0, 372.05)">
      <stop offset="0" stop-color="#FFEDBB"/>
      <stop offset="1" stop-color="#FECD43"/>
    </linearGradient>
    <linearGradient id="Gradient_2" gradientUnits="userSpaceOnUse" x1="0.13" y1="0.234" x2="1.13" y2="0.234" gradientTransform="matrix(0, -38.441, 38.441, 0, 21.387, 349.829)">
      <stop offset="0" stop-color="#E94A86"/>
      <stop offset="1" stop-color="#E9436C"/>
    </linearGradient>
    <linearGradient id="Gradient_3" gradientUnits="userSpaceOnUse" x1="0.13" y1="0.234" x2="1.13" y2="0.234" gradientTransform="matrix(0, -38.441, 38.441, 0, 21.387, 349.829)">
      <stop offset="0" stop-color="#EF759F"/>
      <stop offset="1" stop-color="#EE6562"/>
    </linearGradient>
    <linearGradient id="Gradient_4" gradientUnits="userSpaceOnUse" x1="0.13" y1="0.234" x2="1.13" y2="0.234" gradientTransform="matrix(0, -38.441, 38.441, 0, 21.387, 349.829)">
      <stop offset="0" stop-color="#F4A2BB"/>
      <stop offset="1" stop-color="#F28655"/>
    </linearGradient>
  </defs>
</svg>
