<?xml version="1.0" encoding="UTF-8"?>
<!DOCTYPE svg PUBLIC "-//W3C//DTD SVG 1.1//EN" "http://www.w3.org/Graphics/SVG/1.1/DTD/svg11.dtd">
<svg version="1.1" xmlns="http://www.w3.org/2000/svg" xmlns:xlink="http://www.w3.org/1999/xlink" x="0" y="0" width="283.465" height="283.465" viewBox="0, 0, 283.465, 283.465">
  <g id="Layer_1">
    <path d="M137.031,145.176 C137.031,176.253 112.321,201.445 81.84,201.445 C51.359,201.445 26.65,176.253 26.65,145.176 C26.65,114.099 51.359,88.906 81.84,88.906 C112.321,88.906 137.031,114.099 137.031,145.176 z" fill-opacity="0" stroke="#DE2C68" stroke-width="3"/>
    <path d="M239.7,116.803 C239.7,150.269 213.026,177.398 180.123,177.398 C147.22,177.398 120.546,150.269 120.546,116.803 C120.546,83.337 147.22,56.207 180.123,56.207 C213.026,56.207 239.7,83.337 239.7,116.803 z" fill-opacity="0" stroke="#DE2C68" stroke-width="3"/>
    <path d="M257.815,116.803 C257.815,160.273 222.917,195.512 179.869,195.512 C136.821,195.512 101.923,160.273 101.923,116.803 C101.923,73.332 136.821,38.093 179.869,38.093 C222.917,38.093 257.815,73.332 257.815,116.803 z" fill-opacity="0" stroke="#DE2C68" stroke-width="12"/>
    <path d="M68.027,117.571 L55.723,117.571 L65.566,126.901 L45.88,126.901 L45.88,136.23 L65.566,136.23 L55.723,145.56 L68.027,145.56 L82.791,131.565 z" fill="#FFCC33"/>
    <path d="M195.842,155.57 L180.399,139.588 L213.858,139.588 L213.858,123.606 L180.399,123.606 L195.842,107.624 L175.252,107.624 L152.088,131.597 L175.252,155.57 z" fill="#FFCC33"/>
    <path d="M89.627,236.523 Q89.212,236.523 89.212,236.108 L89.212,221.252 Q89.212,220.837 89.627,220.837 L99.172,220.837 Q99.588,220.837 99.588,221.252 L99.588,223.535 Q99.588,223.95 99.172,223.95 L93.045,223.95 Q92.63,223.95 92.63,224.365 L92.63,227.209 Q92.63,227.625 93.045,227.625 L98.074,227.625 Q98.489,227.625 98.489,228.04 L98.489,230.322 Q98.489,230.737 98.074,230.737 L93.057,230.737 Q92.63,230.737 92.63,231.152 L92.63,236.108 Q92.63,236.523 92.214,236.523 z" fill="#000000"/>
    <path d="M109.39,227.417 Q110.098,227.417 110.598,226.978 Q111.099,226.538 111.099,225.891 L111.099,225.464 Q111.099,224.817 110.604,224.384 Q110.11,223.95 109.39,223.95 L106.472,223.95 Q106.057,223.95 106.057,224.365 L106.057,227.002 Q106.057,227.417 106.472,227.417 z M103.054,236.523 Q102.639,236.523 102.639,236.108 L102.639,221.252 Q102.639,220.837 103.054,220.837 L109.353,220.837 Q111.685,220.837 113.015,222.137 Q114.346,223.438 114.346,225.659 Q114.346,228.223 112.283,229.48 Q112.1,229.59 112.1,229.724 Q112.1,229.834 112.161,229.993 L114.553,235.815 Q114.712,236.182 114.712,236.328 Q114.712,236.523 114.419,236.523 L111.465,236.523 Q111.306,236.523 111.221,236.328 L108.84,230.591 Q108.767,230.42 108.584,230.42 L106.472,230.42 Q106.057,230.42 106.057,230.835 L106.057,236.108 Q106.057,236.523 105.642,236.523 z" fill="#000000"/>
    <path d="M127.481,236.523 L117.935,236.523 Q117.52,236.523 117.52,236.108 L117.52,221.252 Q117.52,220.837 117.935,220.837 L127.481,220.837 Q127.896,220.837 127.896,221.252 L127.896,223.535 Q127.896,223.95 127.481,223.95 L121.353,223.95 Q120.938,223.95 120.938,224.365 L120.938,226.648 Q120.938,227.063 121.353,227.063 L126.382,227.063 Q126.797,227.063 126.797,227.478 L126.797,229.761 Q126.797,230.176 126.382,230.176 L121.353,230.176 Q120.938,230.176 120.938,230.591 L120.938,232.996 Q120.938,233.411 121.353,233.411 L127.481,233.411 Q127.896,233.411 127.896,233.826 L127.896,236.108 Q127.896,236.523 127.481,236.523 z" fill="#000000"/>
    <path d="M131.729,236.523 Q131.314,236.523 131.314,236.108 L131.314,221.13 Q131.314,220.715 131.729,220.715 L134.317,220.715 Q134.732,220.715 134.732,221.13 L134.732,236.108 Q134.732,236.523 134.317,236.523 z" fill="#000000"/>
    <path d="M139.053,236.523 Q138.638,236.523 138.638,236.108 L138.638,221.252 Q138.638,220.837 139.053,220.837 L148.599,220.837 Q149.014,220.837 149.014,221.252 L149.014,223.535 Q149.014,223.95 148.599,223.95 L142.471,223.95 Q142.056,223.95 142.056,224.365 L142.056,227.209 Q142.056,227.625 142.471,227.625 L147.5,227.625 Q147.915,227.625 147.915,228.04 L147.915,230.322 Q147.915,230.737 147.5,230.737 L142.483,230.737 Q142.056,230.737 142.056,231.152 L142.056,236.108 Q142.056,236.523 141.641,236.523 z" fill="#000000"/>
    <path d="M156.948,236.768 Q154.421,236.768 153.182,235.62 Q151.943,234.473 151.943,232.361 L151.943,221.13 Q151.943,220.715 152.359,220.715 L154.946,220.715 Q155.361,220.715 155.361,221.13 L155.361,231.995 Q155.361,232.727 155.795,233.191 Q156.228,233.655 156.948,233.655 L158.694,233.655 Q159.402,233.655 159.835,233.179 Q160.269,232.703 160.281,231.995 L160.281,221.13 Q160.281,220.715 160.696,220.715 L163.284,220.715 Q163.699,220.715 163.699,221.13 L163.699,232.361 Q163.699,234.399 162.411,235.583 Q161.123,236.768 158.694,236.768 z" fill="#000000"/>
    <path d="M167.898,236.523 Q167.483,236.523 167.483,236.108 L167.483,221.13 Q167.483,220.715 167.898,220.715 L170.291,220.715 Q170.535,220.715 170.645,220.886 L175.515,229.333 Q176.052,230.225 176.187,230.664 L176.284,230.664 Q176.077,229.785 175.942,228.485 Q175.808,227.185 175.808,226.147 L175.808,221.13 Q175.808,220.715 176.223,220.715 L178.811,220.715 Q179.226,220.715 179.226,221.13 L179.226,236.108 Q179.226,236.523 178.811,236.523 L176.443,236.523 Q176.211,236.523 176.077,236.328 L171.145,228.198 Q170.632,227.283 170.632,227.124 L170.535,227.124 Q170.681,227.661 170.791,228.802 Q170.901,229.944 170.901,231.116 L170.901,236.108 Q170.901,236.523 170.486,236.523 z" fill="#000000"/>
    <path d="M183.547,236.523 Q183.132,236.523 183.132,236.108 L183.132,221.13 Q183.132,220.715 183.547,220.715 L186.135,220.715 Q186.55,220.715 186.55,221.13 L186.55,225.427 Q186.55,226.44 186.355,227.124 L191.275,220.874 Q191.397,220.715 191.604,220.715 L194.412,220.715 Q194.827,220.715 194.827,221.13 Q194.827,221.326 194.729,221.423 L189.968,227.258 Q189.895,227.344 189.895,227.393 Q189.895,227.417 189.968,227.527 L195.645,235.852 Q195.718,235.962 195.718,236.096 Q195.718,236.523 195.303,236.523 L192.275,236.523 Q191.995,236.523 191.836,236.267 L187.991,230.2 Q187.905,230.054 187.771,230.054 Q187.673,230.054 187.576,230.176 L186.55,231.458 L186.55,236.108 Q186.55,236.523 186.135,236.523 z" fill="#000000"/>
    <path d="M75.692,263.523 Q75.277,263.523 75.277,263.108 L75.277,248.13 Q75.277,247.715 75.692,247.715 L78.463,247.715 Q78.744,247.715 78.842,247.935 L82.272,255.796 Q82.565,256.517 82.565,256.761 L82.687,256.761 Q82.687,256.565 82.98,255.796 L86.325,247.935 Q86.41,247.715 86.703,247.715 L89.462,247.715 Q89.877,247.715 89.877,248.13 L89.877,263.108 Q89.877,263.523 89.462,263.523 L86.935,263.523 Q86.52,263.523 86.52,263.108 L86.52,258.946 Q86.52,258.323 86.55,257.597 Q86.581,256.871 86.63,256.272 Q86.679,255.674 86.727,255.174 Q86.776,254.673 86.807,254.356 Q86.837,254.039 86.837,254.014 L86.74,254.014 Q86.74,254.051 86.599,254.539 Q86.459,255.027 86.245,255.693 Q86.032,256.358 85.873,256.761 L83.932,261.29 Q83.847,261.509 83.554,261.509 L81.625,261.509 Q81.283,261.509 81.198,261.277 L79.33,256.7 Q79.171,256.321 78.952,255.632 Q78.732,254.942 78.573,254.435 Q78.414,253.929 78.402,253.904 L78.341,253.904 Q78.341,253.929 78.378,254.246 Q78.414,254.563 78.463,255.07 Q78.512,255.577 78.561,256.187 Q78.61,256.797 78.646,257.536 Q78.683,258.274 78.683,258.921 L78.683,263.108 Q78.683,263.523 78.268,263.523 z" fill="#000000"/>
    <path d="M97.616,257.92 L100.485,257.92 Q100.802,257.92 100.741,257.664 L99.337,252.391 L99.276,251.89 L98.849,251.89 L98.788,252.391 L97.372,257.664 Q97.311,257.92 97.616,257.92 z M101.412,261.033 L96.713,261.033 Q96.481,261.033 96.432,261.18 L95.858,263.34 Q95.809,263.523 95.614,263.523 L92.599,263.523 Q92.318,263.523 92.318,263.34 Q92.318,263.23 92.367,263.108 L96.835,247.972 Q96.908,247.715 97.225,247.715 L100.924,247.715 Q101.242,247.715 101.315,247.972 L105.795,263.206 Q105.819,263.279 105.819,263.34 Q105.819,263.523 105.551,263.523 L102.523,263.523 Q102.328,263.523 102.267,263.34 L101.693,261.18 Q101.644,261.033 101.412,261.033 z" fill="#000000"/>
    <path d="M112.899,263.768 Q110.385,263.768 109.14,262.62 Q107.894,261.473 107.894,259.361 L107.894,252 Q107.894,249.961 109.182,248.777 Q110.47,247.593 112.899,247.593 L114.706,247.593 Q116.537,247.593 117.825,248.429 Q119.113,249.266 119.528,250.755 Q119.601,251.011 119.601,251.121 Q119.601,251.304 119.393,251.377 L117.172,252.183 L116.989,252.22 Q116.708,252.22 116.61,251.939 Q116.244,250.706 114.706,250.706 L112.899,250.706 Q112.191,250.706 111.752,251.188 Q111.312,251.67 111.312,252.366 L111.312,258.995 Q111.312,259.727 111.746,260.191 Q112.179,260.655 112.899,260.655 L114.767,260.655 Q115.487,260.655 115.921,260.179 Q116.354,259.703 116.354,258.995 L116.354,257.957 Q116.354,257.542 115.939,257.542 L114.364,257.542 Q113.949,257.542 113.949,257.127 L113.949,255.235 Q113.949,254.82 114.364,254.82 L119.235,254.82 Q119.65,254.82 119.65,255.235 L119.65,259.361 Q119.65,261.399 118.362,262.583 Q117.074,263.768 114.645,263.768 z" fill="#000000"/>
    <path d="M123.361,263.523 Q122.946,263.523 122.946,263.108 L122.946,248.252 Q122.946,247.837 123.361,247.837 L129.83,247.837 Q132.308,247.837 133.651,249.113 Q134.994,250.389 134.994,252.623 L134.994,258.738 Q134.994,260.972 133.645,262.248 Q132.296,263.523 129.83,263.523 z M126.779,260.411 L129.867,260.411 Q130.612,260.411 131.094,259.953 Q131.576,259.495 131.576,258.738 L131.576,252.659 Q131.576,251.89 131.088,251.42 Q130.599,250.95 129.867,250.95 L126.779,250.95 Q126.364,250.95 126.364,251.365 L126.364,259.996 Q126.364,260.411 126.779,260.411 z" fill="#000000"/>
    <path d="M148.251,263.523 L138.705,263.523 Q138.29,263.523 138.29,263.108 L138.29,248.252 Q138.29,247.837 138.705,247.837 L148.251,247.837 Q148.666,247.837 148.666,248.252 L148.666,250.535 Q148.666,250.95 148.251,250.95 L142.123,250.95 Q141.708,250.95 141.708,251.365 L141.708,253.648 Q141.708,254.063 142.123,254.063 L147.152,254.063 Q147.567,254.063 147.567,254.478 L147.567,256.761 Q147.567,257.176 147.152,257.176 L142.123,257.176 Q141.708,257.176 141.708,257.591 L141.708,259.996 Q141.708,260.411 142.123,260.411 L148.251,260.411 Q148.666,260.411 148.666,260.826 L148.666,263.108 Q148.666,263.523 148.251,263.523 z" fill="#000000"/>
    <path d="M159.53,263.523 L152.499,263.523 Q152.084,263.523 152.084,263.108 L152.084,248.252 Q152.084,247.837 152.499,247.837 L158.81,247.837 Q161.093,247.837 162.393,248.936 Q163.693,250.035 163.693,252.061 Q163.693,253.086 163.223,253.947 Q162.753,254.808 161.947,255.21 Q161.801,255.296 161.801,255.406 Q161.801,255.528 161.947,255.601 Q163.949,256.578 163.937,259.007 Q163.925,261.216 162.747,262.37 Q161.569,263.523 159.53,263.523 z M155.917,254.063 L158.798,254.063 Q159.591,254.063 160.006,253.648 Q160.421,253.233 160.421,252.439 Q160.421,251.646 160.006,251.237 Q159.591,250.828 158.798,250.828 L155.917,250.828 Q155.502,250.828 155.502,251.243 L155.502,253.648 Q155.502,254.063 155.917,254.063 z M155.917,260.533 L159.054,260.533 Q159.738,260.533 160.195,260.063 Q160.653,259.593 160.653,258.787 Q160.653,258.018 160.195,257.536 Q159.738,257.054 159.054,257.054 L155.917,257.054 Q155.502,257.054 155.502,257.469 L155.502,260.118 Q155.502,260.533 155.917,260.533 z" fill="#000000"/>
    <path d="M171.994,263.768 Q169.467,263.768 168.228,262.62 Q166.989,261.473 166.989,259.361 L166.989,248.13 Q166.989,247.715 167.404,247.715 L169.992,247.715 Q170.407,247.715 170.407,248.13 L170.407,258.995 Q170.407,259.727 170.84,260.191 Q171.273,260.655 171.994,260.655 L173.739,260.655 Q174.447,260.655 174.88,260.179 Q175.314,259.703 175.326,258.995 L175.326,248.13 Q175.326,247.715 175.741,247.715 L178.329,247.715 Q178.744,247.715 178.744,248.13 L178.744,259.361 Q178.744,261.399 177.456,262.583 Q176.168,263.768 173.739,263.768 z" fill="#000000"/>
    <path d="M189.279,254.417 Q189.987,254.417 190.487,253.978 Q190.988,253.538 190.988,252.891 L190.988,252.464 Q190.988,251.817 190.493,251.384 Q189.999,250.95 189.279,250.95 L186.361,250.95 Q185.946,250.95 185.946,251.365 L185.946,254.002 Q185.946,254.417 186.361,254.417 z M182.943,263.523 Q182.528,263.523 182.528,263.108 L182.528,248.252 Q182.528,247.837 182.943,247.837 L189.242,247.837 Q191.574,247.837 192.904,249.137 Q194.235,250.438 194.235,252.659 Q194.235,255.223 192.172,256.48 Q191.989,256.59 191.989,256.724 Q191.989,256.834 192.05,256.993 L194.442,262.815 Q194.601,263.182 194.601,263.328 Q194.601,263.523 194.308,263.523 L191.354,263.523 Q191.195,263.523 191.11,263.328 L188.729,257.591 Q188.656,257.42 188.473,257.42 L186.361,257.42 Q185.946,257.42 185.946,257.835 L185.946,263.108 Q185.946,263.523 185.531,263.523 z" fill="#000000"/>
    <path d="M202.047,263.768 Q199.533,263.768 198.287,262.62 Q197.042,261.473 197.042,259.361 L197.042,252 Q197.042,249.961 198.33,248.777 Q199.618,247.593 202.047,247.593 L203.854,247.593 Q205.685,247.593 206.973,248.429 Q208.261,249.266 208.676,250.755 Q208.749,251.011 208.749,251.121 Q208.749,251.304 208.541,251.377 L206.32,252.183 L206.137,252.22 Q205.856,252.22 205.758,251.939 Q205.392,250.706 203.854,250.706 L202.047,250.706 Q201.339,250.706 200.9,251.188 Q200.46,251.67 200.46,252.366 L200.46,258.995 Q200.46,259.727 200.894,260.191 Q201.327,260.655 202.047,260.655 L203.915,260.655 Q204.635,260.655 205.068,260.179 Q205.502,259.703 205.502,258.995 L205.502,257.957 Q205.502,257.542 205.087,257.542 L203.512,257.542 Q203.097,257.542 203.097,257.127 L203.097,255.235 Q203.097,254.82 203.512,254.82 L208.383,254.82 Q208.798,254.82 208.798,255.235 L208.798,259.361 Q208.798,261.399 207.51,262.583 Q206.222,263.768 203.793,263.768 z" fill="#000000"/>
  </g>
</svg>
