<?xml version="1.0" encoding="UTF-8"?>
<!DOCTYPE svg PUBLIC "-//W3C//DTD SVG 1.1//EN" "http://www.w3.org/Graphics/SVG/1.1/DTD/svg11.dtd">
<svg version="1.1" xmlns="http://www.w3.org/2000/svg" xmlns:xlink="http://www.w3.org/1999/xlink" x="0" y="0" width="283.465" height="283.464" viewBox="0, 0, 283.465, 283.464">
  <g id="Layer_1">
    <text transform="matrix(1, 0, -0, 1, 141.591, 38.837)">
      <tspan x="-69.174" y="15.5" font-family="Swiss911BT-ExtraCompressed" font-size="42" fill="#1A1919">f</tspan>
      <tspan x="-60.312" y="15.5" font-family="Swiss911BT-ExtraCompressed" font-size="42" kerning="0.798" fill="#1A1919">r</tspan>
      <tspan x="-45.612" y="15.5" font-family="Swiss911BT-ExtraCompressed" font-size="42" fill="#1A1919">eies wla</tspan>
      <tspan x="54.852" y="15.5" font-family="Swiss911BT-ExtraCompressed" font-size="42" kerning="0" fill="#1A1919">n</tspan>
    </text>
    <text transform="matrix(1, 0, -0, 1, 141.537, 237.531)">
      <tspan x="-64.605" y="11" font-family="Swiss911BT-ExtraCompressed" font-size="29.5" fill="#1A1919">md.freifunk.net</tspan>
    </text>
    <g>
      <path d="M244.38,9.921 L39.086,9.921 C23.139,9.921 10.211,22.849 10.211,38.796 L10.211,244.091 C10.211,260.037 23.139,272.967 39.086,272.967 L244.38,272.967 C260.327,272.967 273.255,260.037 273.255,244.091 L273.255,38.796 C273.255,22.849 260.327,9.921 244.38,9.921 M244.38,18.425 C255.612,18.425 264.751,27.564 264.751,38.796 L264.751,244.091 C264.751,255.324 255.612,264.463 244.38,264.463 L39.086,264.463 C27.853,264.463 18.714,255.324 18.714,244.091 L18.714,38.796 C18.714,27.564 27.853,18.425 39.086,18.425 L244.38,18.425" fill="#1A1919"/>
      <path d="M151.716,216.339 L131.75,216.339 L138.272,139.838 L145.202,139.838 z" fill="#F7C024"/>
      <path d="M129.983,137.088 C129.983,130.599 135.244,125.338 141.733,125.338 C148.219,125.338 153.481,130.599 153.481,137.088 C153.481,143.578 148.219,148.839 141.733,148.839 C135.244,148.839 129.983,143.578 129.983,137.088" fill="#F7C024"/>
      <path d="M117.255,135.708 C117.255,130.499 119.753,125.759 123.835,122.214 L121.405,119.191 C116.149,123.421 112.898,129.26 112.898,135.708 C112.898,143.063 117.131,149.623 123.744,153.909 L126.234,151.03 C120.75,147.384 117.255,141.873 117.255,135.708" fill="#D8127D"/>
      <path d="M100.848,135.708 C100.848,125.842 106.235,116.991 114.768,110.934 L110.8,105.997 C100.286,113.128 93.602,123.789 93.602,135.708 C93.602,148.337 101.104,159.555 112.718,166.657 L116.858,161.87 C107.123,155.824 100.848,146.357 100.848,135.708" fill="#D8127D"/>
      <path d="M97.082,184.734 L103.555,177.251 C87.78,167.814 77.561,152.719 77.561,135.708 C77.561,119.246 87.139,104.59 102.049,95.109 L95.87,87.421 C77.844,98.55 66.215,116.035 66.215,135.708 C66.215,155.82 78.364,173.648 97.082,184.734" fill="#D8127D"/>
      <path d="M166.21,135.708 C166.21,130.499 163.712,125.759 159.63,122.214 L162.06,119.191 C167.315,123.421 170.567,129.26 170.567,135.708 C170.567,143.063 166.333,149.623 159.722,153.909 L157.23,151.03 C162.716,147.384 166.21,141.873 166.21,135.708" fill="#D8127D"/>
      <path d="M182.616,135.708 C182.616,125.842 177.229,116.991 168.696,110.934 L172.665,105.997 C183.179,113.128 189.862,123.789 189.862,135.708 C189.862,148.337 182.36,159.555 170.747,166.657 L166.606,161.87 C176.341,155.824 182.616,146.357 182.616,135.708" fill="#D8127D"/>
      <path d="M186.384,184.734 L179.909,177.251 C195.685,167.814 205.905,152.719 205.905,135.708 C205.905,119.246 196.327,104.59 181.415,95.109 L187.595,87.421 C205.62,98.55 217.249,116.035 217.249,135.708 C217.249,155.82 205.101,173.648 186.384,184.734" fill="#D8127D"/>
      <path d="M196.524,196.459 C219.852,182.793 235.014,160.674 235.014,135.708 C235.014,111.005 220.172,89.088 197.264,75.39 L206.212,64.257 C233.649,80.329 251.483,106.344 251.483,135.708 C251.483,165.174 233.526,191.269 205.924,207.327 z" fill="#D8127D"/>
    </g>
    <path d="M221.362,137.427 L206.395,122.448 L221.362,107.47 L236.178,107.47 L226.449,117.206 L243.512,117.206 L243.512,127.69 L226.448,127.69 L236.177,137.427 z" fill="#F7C024"/>
    <path d="M240.282,105.769 L232.074,105.769 L222.067,105.769 L220.657,105.769 L219.661,106.766 L206.393,120.044 L203.991,122.448 L206.393,124.852 L219.661,138.13 L220.657,139.127 L222.067,139.127 L232.074,139.127 L240.282,139.127 L234.48,133.322 L230.553,129.391 L241.811,129.391 L245.213,129.391 L245.213,125.989 L245.213,118.907 L245.213,115.505 L241.811,115.505 L230.553,115.505 L234.48,111.575 z M232.074,109.17 L222.344,118.907 L241.811,118.907 L241.811,125.989 L222.344,125.989 L232.074,135.726 L222.067,135.726 L208.8,122.448 L222.067,109.17 z" fill="#FFFFFE"/>
    <path d="M58.938,163.641 L66.81,155.762 L53.461,155.762 L53.461,146.63 L66.81,146.63 L58.938,138.751 L71.843,138.751 L84.278,151.195 L71.843,163.641 z" fill="#F7C024"/>
    <path d="M72.548,137.05 L71.138,137.05 L63.042,137.05 L54.835,137.05 L60.635,142.855 L62.707,144.929 L55.162,144.929 L51.761,144.929 L51.761,148.331 L51.761,154.06 L51.761,157.462 L55.162,157.462 L62.707,157.462 L60.635,159.535 L54.835,165.341 L63.042,165.341 L71.138,165.341 L72.548,165.341 L73.545,164.343 L84.28,153.598 L86.682,151.194 L84.28,148.79 L73.545,138.047 z M71.138,140.451 L81.874,151.194 L71.138,161.939 L63.042,161.939 L70.914,154.06 L55.162,154.06 L55.162,148.331 L70.914,148.331 L63.042,140.451 z" fill="#FFFFFE"/>
    <path d="M86.94,196.459 C63.613,182.793 48.45,160.674 48.45,135.708 C48.45,111.005 63.291,89.088 86.2,75.39 L77.252,64.257 C49.815,80.329 31.981,106.344 31.981,135.708 C31.981,165.174 49.939,191.269 77.54,207.327 z" fill="#D8127D"/>
  </g>
</svg>
